<svg width="32" height="32" viewBox="0 0 32 32" fill="none" xmlns="http://www.w3.org/2000/svg">
<path d="M9.5086 23.2007L8.06421 7H23.9357L22.4898 23.1981L15.9903 25L9.5086 23.2007Z" fill="#264DE4"/>
<path d="M21.2519 22.1668L22.4876 8.32471H16V23.6228L21.2519 22.1668Z" fill="#2965F1"/>
<path d="M11.3756 14.3332L11.5536 16.3201H16V14.3332H11.3756ZM11.1983 12.2985H16V10.3115H11.0177L11.1983 12.2985ZM16 19.4935L15.9913 19.4958L13.7784 18.8983L13.637 17.3136H11.6424L11.9208 20.4334L15.9909 21.5633L16 21.5607V19.4935Z" fill="#EBEBEB"/>
<path d="M15.9932 14.3332V16.3201H18.4399L18.2092 18.897L15.9932 19.4951V21.5623L20.0665 20.4334L20.0964 20.0977L20.5633 14.8667L20.6118 14.3332L20.9705 10.3115H15.9932V12.2985H18.793L18.6121 14.3332H15.9932Z" fill="white"/>
</svg>
