<svg width="16" height="16" viewBox="0 0 16 16" fill="none" xmlns="http://www.w3.org/2000/svg">
<path fill-rule="evenodd" clip-rule="evenodd" d="M2.29711 15.604C2.04501 15.8564 1.70295 15.9984 1.34617 15.9987C0.989398 15.9989 0.647136 15.8574 0.394679 15.6053C0.142223 15.3532 0.000252474 15.0112 3.36418e-07 14.6544C-0.000251802 14.2976 0.141234 13.9553 0.393334 13.7029L11.41 2.68895H3.96695C3.61037 2.68895 3.2684 2.5473 3.01626 2.29516C2.76412 2.04302 2.62247 1.70105 2.62247 1.34448C2.62247 0.987898 2.76412 0.645926 3.01626 0.393788C3.2684 0.14165 3.61037 0 3.96695 0H14.6555C15.0121 0 15.3541 0.14165 15.6062 0.393788C15.8584 0.645926 16 0.987898 16 1.34448V12.0331C16 12.3896 15.8584 12.7316 15.6062 12.9837C15.3541 13.2359 15.0121 13.3775 14.6555 13.3775C14.2989 13.3775 13.957 13.2359 13.7048 12.9837C13.4527 12.7316 13.311 12.3896 13.311 12.0331V4.59004L2.29711 15.604Z" fill="white"/>
</svg>
