<svg width="32" height="32" viewBox="0 0 32 32" fill="none" xmlns="http://www.w3.org/2000/svg">
<path d="M13.6667 24.0001C15.1387 24.0001 16.3333 22.8054 16.3333 21.3334V18.6667H13.6667C12.1947 18.6667 11 19.8614 11 21.3334C11 22.8054 12.1947 24.0001 13.6667 24.0001Z" fill="#0ACF83"/>
<path d="M11 15.9999C11 14.5279 12.1947 13.3333 13.6667 13.3333H16.3333V18.6666H13.6667C12.1947 18.6666 11 17.4719 11 15.9999Z" fill="#A259FF"/>
<path d="M11 10.6667C11 9.19467 12.1947 8 13.6667 8H16.3333V13.3333H13.6667C12.1947 13.3333 11 12.1387 11 10.6667Z" fill="#F24E1E"/>
<path d="M16.3333 8H18.9999C20.4719 8 21.6666 9.19467 21.6666 10.6667C21.6666 12.1387 20.4719 13.3333 18.9999 13.3333H16.3333V8Z" fill="#FF7262"/>
<path d="M21.6666 15.9999C21.6666 17.4719 20.4719 18.6666 18.9999 18.6666C17.5279 18.6666 16.3333 17.4719 16.3333 15.9999C16.3333 14.5279 17.5279 13.3333 18.9999 13.3333C20.4719 13.3333 21.6666 14.5279 21.6666 15.9999Z" fill="#1ABCFE"/>
</svg>
