<svg width="32" height="32" viewBox="0 0 32 32" fill="none" xmlns="http://www.w3.org/2000/svg">
<path d="M16 6.86011C11.0279 6.86011 7 10.888 7 15.8601C7 19.8422 9.57645 23.2066 13.1535 24.3987C13.6035 24.4772 13.7721 24.208 13.7721 23.9716C13.7721 23.7572 13.7615 23.0487 13.7615 22.2951C11.5 22.7116 10.915 21.7437 10.735 21.238C10.6335 20.9787 10.195 20.1801 9.81291 19.9666C9.49791 19.7972 9.04709 19.3816 9.80145 19.3701C10.51 19.3587 11.0165 20.0222 11.185 20.293C11.995 21.6537 13.2885 21.2716 13.8065 21.0351C13.885 20.4501 14.1215 20.0566 14.38 19.8316C12.3771 19.6066 10.285 18.8301 10.285 15.3872C10.285 14.4087 10.6335 13.5987 11.2079 12.9687C11.1171 12.7437 10.8021 11.8216 11.2979 10.5837C11.2979 10.5837 12.0515 10.348 13.7721 11.5066C14.5047 11.3033 15.2618 11.2012 16.0221 11.203C16.7879 11.203 17.5529 11.3037 18.2721 11.5066C19.9935 10.3366 20.7471 10.5837 20.7471 10.5837C21.2421 11.8216 20.9279 12.7437 20.8379 12.9687C21.4115 13.5987 21.76 14.398 21.76 15.3872C21.76 18.8416 19.6565 19.6066 17.6535 19.8316C17.98 20.113 18.2615 20.653 18.2615 21.4966C18.2615 22.7001 18.25 23.668 18.25 23.9716C18.25 24.208 18.4185 24.4887 18.8685 24.3987C22.4235 23.2066 25 19.8316 25 15.8601C25 10.888 20.9729 6.86011 16 6.86011Z" fill="white"/>
</svg>
