<svg width="32" height="32" viewBox="0 0 32 32" fill="none" xmlns="http://www.w3.org/2000/svg">
<mask id="mask0_28_35" style="mask-type:alpha" maskUnits="userSpaceOnUse" x="9" y="9" width="15" height="14">
<path fill-rule="evenodd" clip-rule="evenodd" d="M13.9819 9C16.2634 9 18.1129 10.8544 18.1129 13.1419V14.7161H19.4878C21.7693 14.7161 23.6188 16.5706 23.6188 18.858C23.6188 21.1456 21.7693 23 19.4878 23H9.85083V13.1419C9.85083 10.8544 11.7004 9 13.9819 9Z" fill="url(#paint0_linear_28_35)"/>
</mask>
<g mask="url(#mask0_28_35)">
<g filter="url(#filter0_f_28_35)">
<path d="M15.8904 25.7928C21.0376 25.7928 25.2103 21.6201 25.2103 16.4729C25.2103 11.3257 21.0376 7.15308 15.8904 7.15308C10.7432 7.15308 6.57056 11.3257 6.57056 16.4729C6.57056 21.6201 10.7432 25.7928 15.8904 25.7928Z" fill="#4B73FF"/>
</g>
<g filter="url(#filter1_f_28_35)">
<path d="M16.9143 20.6783C23.5065 20.6783 28.8505 16.5056 28.8505 11.3584C28.8505 6.21122 23.5065 2.03857 16.9143 2.03857C10.3221 2.03857 4.97803 6.21122 4.97803 11.3584C4.97803 16.5056 10.3221 20.6783 16.9143 20.6783Z" fill="#FF66F4"/>
</g>
<g filter="url(#filter2_f_28_35)">
<path d="M18.8616 17.7899C24.0088 17.7899 28.1815 14.1254 28.1815 9.60502C28.1815 5.08465 24.0088 1.42017 18.8616 1.42017C13.7144 1.42017 9.54175 5.08465 9.54175 9.60502C9.54175 14.1254 13.7144 17.7899 18.8616 17.7899Z" fill="#FF0105"/>
</g>
<g filter="url(#filter3_f_28_35)">
<path d="M17.0805 16.9611C20.1761 16.9611 22.6855 14.4517 22.6855 11.3562C22.6855 8.26064 20.1761 5.75122 17.0805 5.75122C13.985 5.75122 11.4756 8.26064 11.4756 11.3562C11.4756 14.4517 13.985 16.9611 17.0805 16.9611Z" fill="#FE7B02"/>
</g>
</g>
<defs>
<filter id="filter0_f_28_35" x="2.39376" y="2.97628" width="26.9932" height="26.9932" filterUnits="userSpaceOnUse" color-interpolation-filters="sRGB">
<feFlood flood-opacity="0" result="BackgroundImageFix"/>
<feBlend mode="normal" in="SourceGraphic" in2="BackgroundImageFix" result="shape"/>
<feGaussianBlur stdDeviation="2.0884" result="effect1_foregroundBlur_28_35"/>
</filter>
<filter id="filter1_f_28_35" x="0.801231" y="-2.13822" width="32.2262" height="26.9932" filterUnits="userSpaceOnUse" color-interpolation-filters="sRGB">
<feFlood flood-opacity="0" result="BackgroundImageFix"/>
<feBlend mode="normal" in="SourceGraphic" in2="BackgroundImageFix" result="shape"/>
<feGaussianBlur stdDeviation="2.0884" result="effect1_foregroundBlur_28_35"/>
</filter>
<filter id="filter2_f_28_35" x="5.36495" y="-2.75663" width="26.9932" height="24.7232" filterUnits="userSpaceOnUse" color-interpolation-filters="sRGB">
<feFlood flood-opacity="0" result="BackgroundImageFix"/>
<feBlend mode="normal" in="SourceGraphic" in2="BackgroundImageFix" result="shape"/>
<feGaussianBlur stdDeviation="2.0884" result="effect1_foregroundBlur_28_35"/>
</filter>
<filter id="filter3_f_28_35" x="7.29879" y="1.57442" width="19.5636" height="19.5636" filterUnits="userSpaceOnUse" color-interpolation-filters="sRGB">
<feFlood flood-opacity="0" result="BackgroundImageFix"/>
<feBlend mode="normal" in="SourceGraphic" in2="BackgroundImageFix" result="shape"/>
<feGaussianBlur stdDeviation="2.0884" result="effect1_foregroundBlur_28_35"/>
</filter>
<linearGradient id="paint0_linear_28_35" x1="14.484" y1="11.4603" x2="18.6786" y2="22.9947" gradientUnits="userSpaceOnUse">
<stop offset="0.025" stop-color="#FF8E63"/>
<stop offset="0.56" stop-color="#FF7EB0"/>
<stop offset="0.95" stop-color="#4B73FF"/>
</linearGradient>
</defs>
</svg>
