<svg width="32" height="32" viewBox="0 0 32 32" fill="none" xmlns="http://www.w3.org/2000/svg">
<path d="M16 17.6517C16.9618 17.6517 17.7415 16.872 17.7415 15.9102C17.7415 14.9484 16.9618 14.1687 16 14.1687C15.0382 14.1687 14.2585 14.9484 14.2585 15.9102C14.2585 16.872 15.0382 17.6517 16 17.6517Z" fill="#58C4DC"/>
<path d="M15.9999 19.8286C20.8089 19.8286 24.7073 18.0743 24.7073 15.9103C24.7073 13.7462 20.8089 11.9919 15.9999 11.9919C11.1909 11.9919 7.29248 13.7462 7.29248 15.9103C7.29248 18.0743 11.1909 19.8286 15.9999 19.8286Z" stroke="#58C4DC" stroke-width="0.87074"/>
<path d="M12.6067 17.8693C15.0112 22.034 18.4797 24.533 20.3538 23.451C22.2279 22.369 21.798 18.1157 19.3935 13.951C16.989 9.7863 13.5205 7.2873 11.6464 8.36932C9.77231 9.45134 10.2023 13.7046 12.6067 17.8693Z" stroke="#58C4DC" stroke-width="0.87074"/>
<path d="M12.6066 13.9511C10.2021 18.1158 9.77218 22.3691 11.6463 23.4511C13.5204 24.5331 16.9889 22.0341 19.3934 17.8694C21.7979 13.7048 22.2278 9.45146 20.3537 8.36945C18.4796 7.28743 15.0111 9.78643 12.6066 13.9511Z" stroke="#58C4DC" stroke-width="0.87074"/>
</svg>
