<svg width="32" height="32" viewBox="0 0 32 32" fill="none" xmlns="http://www.w3.org/2000/svg">
<mask id="mask0_29_88" style="mask-type:luminance" maskUnits="userSpaceOnUse" x="6" y="10" width="20" height="13">
<path d="M6 10.3999H26V22.3999H6V10.3999Z" fill="white"/>
</mask>
<g mask="url(#mask0_29_88)">
<path fill-rule="evenodd" clip-rule="evenodd" d="M16 10.3999C13.3333 10.3999 11.6667 11.7332 11 14.3999C12 13.0666 13.1667 12.5666 14.5 12.8999C15.2607 13.0899 15.8044 13.6421 16.4063 14.2529C17.3867 15.2481 18.5215 16.3999 21 16.3999C23.6667 16.3999 25.3333 15.0666 26 12.3999C25 13.7332 23.8333 14.2332 22.5 13.8999C21.7393 13.7099 21.1956 13.1577 20.5937 12.5469C19.6133 11.5518 18.4785 10.3999 16 10.3999ZM11 16.3999C8.33333 16.3999 6.66667 17.7332 6 20.3999C7 19.0666 8.16667 18.5666 9.5 18.8999C10.2607 19.0903 10.8044 19.6421 11.4063 20.2529C12.3867 21.2481 13.5215 22.3999 16 22.3999C18.6667 22.3999 20.3333 21.0666 21 18.3999C20 19.7332 18.8333 20.2332 17.5 19.8999C16.7393 19.7099 16.1956 19.1577 15.5937 18.5469C14.6133 17.5518 13.4785 16.3999 11 16.3999Z" fill="#38BDF8"/>
</g>
</svg>
