<svg width="32" height="32" viewBox="0 0 32 32" fill="none" xmlns="http://www.w3.org/2000/svg">
<path d="M23.2422 7H8.75781C7.787 7 7 7.787 7 8.75781V23.2422C7 24.213 7.787 25 8.75781 25H23.2422C24.213 25 25 24.213 25 23.2422V8.75781C25 7.787 24.213 7 23.2422 7Z" fill="#3178C6"/>
<path d="M23.2422 7H8.75781C7.787 7 7 7.787 7 8.75781V23.2422C7 24.213 7.787 25 8.75781 25H23.2422C24.213 25 25 24.213 25 23.2422V8.75781C25 7.787 24.213 7 23.2422 7Z" fill="#3178C6"/>
<path fill-rule="evenodd" clip-rule="evenodd" d="M18.1424 21.3235V23.0835C18.4285 23.2301 18.7669 23.3401 19.1575 23.4134C19.5482 23.4868 19.9599 23.5234 20.3927 23.5234C20.8146 23.5234 21.2153 23.4831 21.5949 23.4024C21.9746 23.3218 22.3075 23.1889 22.5936 23.0037C22.8797 22.8186 23.1062 22.5765 23.2731 22.2777C23.44 21.9789 23.5234 21.6095 23.5234 21.1695C23.5234 20.8505 23.4758 20.5709 23.3804 20.3308C23.285 20.0906 23.1475 19.8771 22.9677 19.6901C22.788 19.5031 22.5725 19.3353 22.3212 19.1868C22.07 19.0383 21.7866 18.8981 21.4712 18.7661C21.2401 18.6707 21.0328 18.5782 20.8494 18.4884C20.666 18.3985 20.5101 18.3068 20.3817 18.2134C20.2533 18.1199 20.1543 18.0209 20.0846 17.9164C20.0149 17.8118 19.9801 17.6936 19.9801 17.5616C19.9801 17.4406 20.0113 17.3315 20.0736 17.2344C20.136 17.1372 20.224 17.0538 20.3377 16.9841C20.4514 16.9145 20.5908 16.8604 20.7559 16.8219C20.921 16.7834 21.1043 16.7642 21.3061 16.7642C21.4528 16.7642 21.6078 16.7752 21.771 16.7971C21.9342 16.8191 22.0984 16.8531 22.2635 16.8989C22.4285 16.9447 22.589 17.0025 22.7449 17.0721C22.9008 17.1418 23.0448 17.2225 23.1768 17.3141V15.6697C22.909 15.567 22.6165 15.4909 22.2992 15.4414C21.9819 15.3919 21.6179 15.3672 21.2071 15.3672C20.7889 15.3672 20.3927 15.4121 20.0186 15.5019C19.6445 15.5918 19.3153 15.732 19.031 15.9227C18.7467 16.1133 18.522 16.3562 18.357 16.6514C18.1919 16.9465 18.1094 17.2994 18.1094 17.7101C18.1094 18.2344 18.2607 18.6818 18.5633 19.0521C18.8659 19.4224 19.3253 19.7359 19.9416 19.9926C20.1837 20.0916 20.4093 20.1887 20.6183 20.284C20.8274 20.3794 21.0081 20.4784 21.1603 20.581C21.3125 20.6837 21.4326 20.7955 21.5207 20.9165C21.6087 21.0375 21.6527 21.175 21.6527 21.329C21.6527 21.4427 21.6252 21.5481 21.5702 21.6452C21.5152 21.7424 21.4317 21.8267 21.3198 21.8982C21.208 21.9697 21.0686 22.0256 20.9017 22.066C20.7348 22.1063 20.5395 22.1265 20.3157 22.1265C19.9342 22.1265 19.5564 22.0596 19.1823 21.9257C18.8081 21.7919 18.4615 21.5912 18.1424 21.3235ZM15.1837 16.9873H17.4414V15.543H11.1484V16.9873H13.3951V23.418H15.1837V16.9873Z" fill="white"/>
</svg>
